<?xml version="1.0" standalone="no"?>
<!DOCTYPE svg PUBLIC "-//W3C//DTD SVG 20010904//EN"
 "http://www.w3.org/TR/2001/REC-SVG-20010904/DTD/svg10.dtd">
<svg version="1.0" xmlns="http://www.w3.org/2000/svg"
 width="792.000000pt" height="792.000000pt" viewBox="0 0 792.000000 792.000000"
 preserveAspectRatio="xMidYMid meet">
<metadata>
Created by potrace 1.11, written by Peter Selinger 2001-2013
</metadata>
<g transform="translate(0.000000,792.000000) scale(0.100000,-0.100000)"
fill="#000000" stroke="none">
<path d="M2855 5138 c-33 -3 -278 -6 -545 -5 l-485 2 0 -35 c0 -35 0 -35 68
-51 90 -22 117 -41 118 -82 0 -17 0 -277 0 -577 0 -625 10 -568 -99 -591 -84
-18 -94 -25 -90 -62 l3 -32 110 1 c401 4 875 3 1020 0 94 -3 176 -1 183 3 6 4
25 61 41 127 17 66 39 142 50 168 l21 47 -30 13 c-24 10 -85 12 -135 4 -5 0
-20 2 -32 6 -25 8 -31 3 -95 -94 -49 -74 -110 -124 -171 -141 -23 -7 -87 -12
-143 -11 -106 1 -166 18 -183 49 -5 10 -8 128 -7 263 l1 244 95 1 c142 1 159
-8 176 -102 12 -70 11 -70 131 -69 l108 1 -4 65 c-5 83 -5 202 0 305 l4 80
-100 2 c-55 1 -107 -3 -116 -7 -10 -6 -19 -28 -23 -59 -4 -30 -16 -61 -29 -76
-20 -24 -28 -26 -107 -26 -47 -1 -97 0 -112 0 l-27 1 1 260 1 259 141 -3 c118
-3 148 -6 181 -24 51 -25 90 -64 123 -122 44 -78 43 -77 149 -79 101 -1 130 8
114 38 -10 18 -37 120 -45 166 -3 17 -8 51 -11 77 -4 26 -13 52 -21 58 -15 13
-143 18 -229 8z"/>
<path d="M3353 5129 c-12 -15 -19 -58 -28 -160 -2 -31 -6 -67 -9 -80 -3 -13
-8 -45 -11 -71 -5 -47 -5 -48 22 -49 112 -3 196 0 203 7 4 5 18 41 30 79 26
80 76 137 131 150 34 8 439 16 439 9 0 -2 -188 -286 -417 -631 -229 -346 -418
-638 -421 -650 l-4 -22 463 0 c255 1 561 -3 679 -7 178 -6 217 -5 227 7 6 8
14 41 17 74 10 99 17 146 32 225 8 41 10 78 6 82 -8 8 -73 10 -166 5 l-49 -2
-46 -92 c-56 -111 -98 -149 -185 -170 -36 -8 -416 -9 -416 -1 0 4 189 292 420
639 231 347 420 637 420 645 0 12 -69 14 -457 14 -252 0 -550 3 -663 7 -171 5
-207 4 -217 -8z"/>
<path d="M4702 5110 c-2 -36 10 -51 49 -56 19 -3 53 -14 77 -26 42 -20 53 -35
139 -188 11 -19 84 -147 162 -283 l142 -248 0 -192 c1 -263 1 -261 -14 -281
-8 -11 -45 -25 -92 -37 -80 -19 -95 -29 -90 -58 2 -9 4 -21 4 -26 1 -7 48 -10
129 -8 197 2 425 2 557 -1 66 -1 125 -1 131 1 6 2 11 18 10 36 -1 31 -2 32
-84 53 -51 13 -88 28 -97 40 -12 15 -14 63 -15 246 0 204 2 231 19 260 155
273 379 640 405 664 25 24 48 34 96 42 34 7 65 13 67 16 2 2 5 19 6 37 l2 34
-323 0 -323 1 3 -35 c3 -35 5 -37 58 -49 30 -8 61 -19 69 -27 18 -18 17 -62
-3 -84 -9 -9 -16 -20 -16 -24 0 -3 -30 -57 -66 -119 -37 -62 -76 -129 -86
-148 -34 -59 -39 -63 -53 -38 -6 13 -40 75 -75 138 -130 238 -132 241 -126
265 6 23 14 27 86 40 32 6 48 29 43 58 l-5 23 -392 -1 -392 0 -2 -25z"/>
<path d="M2083 3504 c-126 -32 -228 -110 -278 -211 -25 -49 -29 -70 -29 -138
0 -65 4 -90 25 -135 67 -142 213 -229 388 -231 43 0 97 4 122 10 122 32 228
115 277 219 26 55 30 72 28 140 -2 60 -9 90 -30 134 -43 92 -145 173 -260 208
-56 18 -183 20 -243 4z"/>
<path d="M2985 3508 c-225 -43 -369 -251 -311 -450 36 -125 169 -236 313 -263
50 -9 157 -7 203 4 181 41 308 180 314 341 6 162 -104 301 -284 358 -50 16
-176 22 -235 10z"/>
<path d="M3881 3509 c-68 -13 -166 -63 -216 -110 -26 -24 -60 -72 -78 -108
-27 -56 -32 -75 -31 -141 0 -62 5 -85 29 -134 70 -144 217 -229 391 -227 180
2 326 87 395 230 18 36 23 64 23 131 1 73 -3 93 -27 141 -45 93 -133 166 -241
203 -55 19 -185 27 -245 15z"/>
<path d="M4750 3501 c-118 -30 -224 -112 -271 -209 -33 -70 -37 -180 -9 -254
55 -148 216 -249 398 -250 131 -1 230 39 320 125 58 56 88 111 101 183 8 42 7
62 -4 131 -19 116 -164 251 -300 278 -69 14 -172 13 -235 -4z"/>
<path d="M5644 3500 c-115 -31 -215 -109 -264 -207 -21 -40 -25 -62 -25 -138
0 -78 4 -97 28 -146 31 -63 103 -136 167 -169 77 -40 129 -50 240 -47 95 2
112 6 176 36 239 111 302 379 130 555 -111 114 -292 161 -452 116z"/>
</g>
</svg>
